<?xml version="1.0" encoding="UTF-8"?>
<svg version="1.1" xmlns="http://www.w3.org/2000/svg" width="860" height="829">
<path d="M0 0 C1.01449219 0.7321875 2.02898437 1.464375 3.07421875 2.21875 C28.87335148 21.19769267 49.41796145 45.55704779 64 74 C64.35400879 74.67820801 64.70801758 75.35641602 65.07275391 76.05517578 C79.45940387 103.86306467 86.48437527 134.90482178 86.3125 166.125 C86.31034485 166.83888885 86.3081897 167.55277771 86.30596924 168.28829956 C86.10986755 209.06894929 74.10460507 249.81390043 50 283 C49.30519531 283.97839844 48.61039063 284.95679688 47.89453125 285.96484375 C43.17456979 292.455835 38.07183767 298.3798916 32.578125 304.2109375 C30.77338824 306.16333454 29.0641876 308.10503571 27.3828125 310.15625 C24.23851992 313.90878279 20.76341794 316.88405182 17 320 C16.47615723 320.43618652 15.95231445 320.87237305 15.41259766 321.32177734 C-21.59060275 352 -21.59060275 352 -34 352 C-33.96271334 367.94322475 -33.90267759 383.88619463 -33.81609726 399.82921886 C-33.77641118 407.23307308 -33.74396606 414.63682261 -33.72900391 422.04077148 C-33.71593292 428.49955593 -33.68883092 434.95810904 -33.64538693 441.41676313 C-33.62289334 444.83164816 -33.60708195 448.24624916 -33.60811615 451.66121483 C-33.60573468 455.48827671 -33.57855756 459.31444994 -33.54589844 463.14135742 C-33.5509288 464.25411041 -33.55595917 465.3668634 -33.56114197 466.51333618 C-33.38725311 479.77703414 -29.30074774 491.88997126 -20.34375 501.83984375 C-11.86725431 509.69659565 -0.61380894 513.63920076 10.8359375 513.37109375 C39.30076724 510.03262606 66.89866616 489.26361835 89 472.4375 C95.44273575 467.74227231 101.62555674 466.34156147 109.609375 466.57421875 C113.96609841 467.35017112 116.38162271 469.52664237 119 473 C121.05973459 476.54975536 122.57977734 480.15513864 124 484 C124.32871094 484.7321875 124.65742187 485.464375 124.99609375 486.21875 C126.62607222 490.74552959 126.00122605 493.72349516 124.03344727 498.10864258 C120.56179761 505.09765831 116.26178582 511.23017969 111 517 C109.72382812 518.41539062 109.72382812 518.41539062 108.421875 519.859375 C85.68278879 544.2380313 51.75671088 559.59820234 19 564 C18.00355469 564.1753125 17.00710938 564.350625 15.98046875 564.53125 C-8.61290533 567.88342681 -36.4210452 557.05738114 -55.875 542.5 C-57.26617331 541.35266703 -58.64192917 540.18633036 -60 539 C-60.66257812 538.43152344 -61.32515625 537.86304688 -62.0078125 537.27734375 C-74.79091367 525.47177384 -83.21640685 507.99013209 -84.18924904 490.62118149 C-84.26634032 486.63725889 -84.28222408 482.65579492 -84.2746582 478.67138672 C-84.2790133 477.14596306 -84.28419909 475.62054158 -84.29014587 474.09512329 C-84.30345688 469.97958212 -84.30412374 465.86413321 -84.30158257 461.74857473 C-84.30050814 458.30415464 -84.30540791 454.85975287 -84.310188 451.41533673 C-84.3212544 443.28843302 -84.32173583 435.16157555 -84.31567383 427.03466797 C-84.30962675 418.66509244 -84.32197022 410.29568472 -84.3432439 401.9261378 C-84.36087733 394.72246288 -84.36685877 387.51884131 -84.36360615 380.31514561 C-84.36179699 376.02030115 -84.36439335 371.7255766 -84.37832069 367.4307518 C-84.39092399 363.39393032 -84.38893145 359.35737043 -84.37590981 355.32055283 C-84.37355046 353.84357615 -84.37625564 352.36658091 -84.38453293 350.88962555 C-84.45665175 337.01601474 -81.31838846 327.55789708 -71.75 317.3125 C-64.58442839 310.59561468 -55.23356411 306.48771782 -46.5625 302.0625 C-34.16335101 295.63422244 -23.49844694 289.13154248 -13.42138672 279.37011719 C-12.11112309 278.10711487 -10.77725254 276.86872525 -9.44140625 275.6328125 C11.57847601 255.6555164 25.55356697 228.05322746 32 200 C32.24556641 198.98993896 32.24556641 198.98993896 32.49609375 197.95947266 C41.34001513 160.49157848 32.94121591 118.50380354 13 86 C7.99520501 78.11998767 2.32653851 70.93571785 -4.046875 64.10546875 C-5.64060724 62.38742539 -7.11458926 60.65134665 -8.5625 58.8125 C-31.84594282 31.94698906 -69.94557897 17.39954764 -104.5 14.375 C-144.5104589 11.74901523 -185.65662023 23.11326024 -216.21875 49.76171875 C-219.21370762 52.43902935 -222.10618785 55.21398028 -225 58 C-225.75539063 58.680625 -226.51078125 59.36125 -227.2890625 60.0625 C-252.79140118 83.80285891 -267.98617925 121.52691753 -269.90625 155.9921875 C-269.9371875 156.98476563 -269.968125 157.97734375 -270 159 C-270.07734375 160.82917969 -270.07734375 160.82917969 -270.15625 162.6953125 C-271.38677334 204.68056556 -255.31715333 243.47853717 -226.890625 273.89648438 C-225.59592028 275.26637733 -224.29806816 276.63329371 -223 278 C-222.40832031 278.65613281 -221.81664062 279.31226563 -221.20703125 279.98828125 C-212.10947715 289.75972824 -200.1862707 295.61819869 -188.47094727 301.61230469 C-181.07047174 305.40479721 -173.90903737 309.35369983 -167 314 C-166.38511719 314.41121094 -165.77023437 314.82242187 -165.13671875 315.24609375 C-158.5525987 320.16291725 -153.60241056 328.29439368 -151 336 C-150.62247658 339.32659435 -150.62247658 339.32659435 -150.61904907 342.83525085 C-150.6143691 343.48613342 -150.60968913 344.13701598 -150.60486734 344.80762225 C-150.59298692 346.96921037 -150.60234681 349.13015624 -150.61181641 351.29174805 C-150.60774739 352.84964871 -150.60240366 354.40754649 -150.59588623 355.96543884 C-150.58224035 360.18477609 -150.58750147 364.40389258 -150.59702349 368.62323356 C-150.604641 373.05122183 -150.59756805 377.47919173 -150.59286499 381.90718079 C-150.58741067 389.34757868 -150.59458757 396.78788718 -150.60888672 404.22827148 C-150.62518261 412.8061822 -150.61994574 421.38387862 -150.6034075 429.96178406 C-150.58974749 437.34466043 -150.58789585 444.72747265 -150.59572351 452.11035758 C-150.60037916 456.51155686 -150.60108395 460.91265583 -150.59111404 465.3138485 C-150.5823818 469.45817656 -150.58857923 473.60223164 -150.60579681 477.74653053 C-150.60972981 479.25890782 -150.608683 480.77130848 -150.60200882 482.28367615 C-150.5541337 494.24467975 -151.98034221 505.19249071 -157.5 515.9375 C-158.01494019 516.94417725 -158.01494019 516.94417725 -158.5402832 517.97119141 C-169.8883022 539.18192601 -190.32282297 551.90661729 -212.8203125 558.8984375 C-226.45472259 562.64003556 -239.91817959 565.2272267 -254 563 C-254.75990234 562.88092285 -255.51980469 562.7618457 -256.30273438 562.63916016 C-284.98069354 557.97131629 -311.86682056 545.9084778 -334 527 C-334.81984375 526.31421875 -335.6396875 525.6284375 -336.484375 524.921875 C-346.35290058 516.4018436 -359.55180585 503.79734068 -361 490 C-358.71541157 481.77548164 -355.25596511 472.78308009 -348.75 467 C-341.67425857 464.42700312 -334.70833353 465.89597054 -328 469 C-323.31857815 471.7377455 -318.87779255 474.86520638 -314.41723633 477.94430542 C-310.75054766 480.47060104 -307.05572972 482.95489003 -303.359375 485.4375 C-302.63347168 485.92532455 -301.90756836 486.41314911 -301.15966797 486.91575623 C-270.67760995 507.44007804 -270.67760995 507.44007804 -235.2734375 511.53515625 C-223.67139101 508.77354237 -214.93824377 502.70805651 -208 493 C-201.75824399 481.73439158 -200.68627885 469.56426318 -200.77294922 456.89746094 C-200.77265717 455.75454086 -200.77236511 454.61162079 -200.77206421 453.43406677 C-200.77344439 449.70075573 -200.78894333 445.96765067 -200.8046875 442.234375 C-200.8084223 439.62835804 -200.81126706 437.02233967 -200.81326294 434.4163208 C-200.8194446 428.28618174 -200.83580983 422.15611521 -200.85596192 416.02600789 C-200.87842498 409.0391739 -200.88934034 402.05233618 -200.89935279 395.06547499 C-200.92017957 380.71027794 -200.95529006 366.35514156 -201 352 C-201.94743576 351.68968842 -202.89487152 351.37937683 -203.87101746 351.05966187 C-234.32565253 340.74588895 -263.60395753 312.54483854 -282 287 C-282.61319092 286.16130371 -282.61319092 286.16130371 -283.23876953 285.30566406 C-303.52071607 257.29458633 -316.65031863 223.4538655 -320 189 C-320.10957031 187.9171875 -320.21914063 186.834375 -320.33203125 185.71875 C-324.82344707 133.49855538 -309.72779599 84.26081511 -278.75 42.375 C-278.27908936 41.73602783 -277.80817871 41.09705566 -277.32299805 40.4387207 C-274.33808139 36.49159882 -271.10445194 32.99384957 -267.56201172 29.54052734 C-265.81997013 27.82244631 -264.24344624 26.01226633 -262.6875 24.125 C-232.13785812 -10.99030265 -181.74663736 -32.88123547 -135.8984375 -36.71875 C-87.92886351 -39.85638251 -39.15774663 -28.89532108 0 0 Z " fill="#FDFDFD" transform="translate(547,214)"/>
<path d="M0 0 C3.24953374 2.00503146 4.84102015 3.63010564 6.9375 6.8125 C7.46875 10.01171875 7.46875 10.01171875 7.4375 13.5 C7.45296875 15.20736328 7.45296875 15.20736328 7.46875 16.94921875 C6.0023505 27.61296214 0.77312608 33.83015915 -6.76879883 41.18408203 C-7.76424269 42.17618942 -8.75835209 43.16963726 -9.75123596 44.16430664 C-12.43243428 46.84297168 -15.13157212 49.50286069 -17.83432221 52.15975428 C-20.67156684 54.95549641 -23.49118699 57.7689016 -26.31266785 60.58053589 C-31.6579673 65.90208337 -37.01793663 71.20858471 -42.38380784 76.50938022 C-50.24418435 84.27573403 -58.08242476 92.06437792 -65.92047405 99.85325432 C-67.08204153 101.00747229 -68.24361584 102.16168339 -69.40519714 103.31588745 C-69.97279823 103.8799388 -70.54039933 104.44399015 -71.12520045 105.02513397 C-74.4792934 108.35725163 -77.83764527 111.68499976 -81.19999468 115.00878549 C-83.2984001 117.08364036 -85.39482404 119.16049046 -87.49097252 121.23762512 C-88.91310527 122.64535101 -90.33796855 124.05031678 -91.76293945 125.45516968 C-96.21683392 129.87136844 -100.52700439 134.33829765 -104.59736156 139.11208916 C-106.02675364 140.77101347 -107.50469723 142.36442947 -109.01953125 143.9453125 C-114.27067039 149.4323868 -119.18630954 155.01604982 -123.625 161.1875 C-124.03016846 161.7458252 -124.43533691 162.30415039 -124.8527832 162.87939453 C-130.09567182 170.36732919 -132.14934962 176.79289737 -131.0625 185.8125 C-127.07535832 201.91152488 -112.69520064 217.17371175 -101.58203125 229.08203125 C-99.60484183 231.22475281 -97.69140469 233.39378222 -95.7890625 235.6015625 C-91.91494902 240.04516805 -87.80355547 244.21901098 -83.625 248.375 C-82.91279297 249.09107422 -82.20058594 249.80714844 -81.46679688 250.54492188 C-76.82886024 255.17443355 -72.03240387 259.54403702 -67.0625 263.8125 C-65.85941002 264.86965351 -64.65755857 265.92821842 -63.45703125 266.98828125 C-55.55015844 273.92834626 -47.47483517 280.4905725 -39.0625 286.8125 C3.2006096 318.68960965 3.2006096 318.68960965 5.33984375 329.92578125 C5.77768736 336.10898739 3.66072982 340.93310934 -0.0625 345.8125 C-3.78508687 349.04468621 -7.1640458 350.03300919 -12.0625 349.8125 C-41.95066149 344.53310965 -70.30829252 318.68913107 -92.39526367 299.27636719 C-93.57947004 298.23661007 -94.76754372 297.20125025 -95.95825195 296.16894531 C-100.77766689 291.98346293 -105.47619226 287.68625704 -110.125 283.3125 C-111.12756836 282.37470703 -111.12756836 282.37470703 -112.15039062 281.41796875 C-123.59995442 270.66939866 -123.59995442 270.66939866 -128.4375 265 C-131.00998973 262.01019527 -133.64240115 259.09040107 -136.3125 256.1875 C-157.66919051 232.44579836 -179.30882365 204.68223588 -177.94140625 171.2265625 C-176.5183569 150.46807751 -165.07980841 134.30236979 -152.0625 118.8125 C-151.27746094 117.85472656 -150.49242187 116.89695312 -149.68359375 115.91015625 C-138.58346753 102.45968884 -126.36264165 90.03302963 -114.0625 77.6875 C-113.19061035 76.8109375 -112.3187207 75.934375 -111.42041016 75.03125 C-107.01156619 70.63340066 -102.54812894 66.37246433 -97.80273438 62.33837891 C-95.97365958 60.73460261 -94.26526916 59.04910575 -92.5625 57.3125 C-89.61649785 54.32015625 -86.53266993 51.55925828 -83.3515625 48.8203125 C-81.12685528 46.86894815 -78.95096735 44.87081544 -76.78173828 42.8581543 C-71.59139013 38.04421807 -66.27858044 33.47918829 -60.75390625 29.046875 C-58.04103819 26.79468265 -55.49689639 24.42428496 -52.9375 22 C-39.38217543 9.58719564 -19.5685241 -7.1765163 0 0 Z " fill="#FCFCFC" transform="translate(221.0625,195.1875)"/>
<path d="M0 0 C13.0958402 7.07061328 24.21336905 16.22040975 35.1796875 26.22265625 C37.68599369 28.44831851 40.26065018 30.54834061 42.87890625 32.640625 C49.51412594 38.01065449 55.65657512 43.87766122 61.85888672 49.73388672 C64.61014248 52.31506751 67.40035109 54.85265516 70.19140625 57.390625 C73.87590142 60.75494345 77.45804296 64.17700157 80.94750977 67.74169922 C82.6822695 69.44415837 84.47904564 71.02069021 86.328125 72.59765625 C91.00385679 76.66654002 95.38369742 80.99817592 99.75390625 85.390625 C100.51767578 86.15052734 101.28144531 86.91042969 102.06835938 87.69335938 C106.26350034 91.89567766 110.28772419 96.18566551 114.16088867 100.6862793 C116.14929912 102.98172138 118.2345173 105.17999734 120.31640625 107.390625 C140.88758043 130.02516924 154.86768307 151.32332599 153.86181641 182.58447266 C151.99779775 213.96301014 123.0547858 245.79211145 101.45703125 266.6875 C99.73298374 268.41154751 98.18757801 270.20457005 96.62890625 272.078125 C90.89274359 278.74838754 84.17386848 284.52579565 77.69140625 290.453125 C76.76457031 291.30648438 75.83773437 292.15984375 74.8828125 293.0390625 C69.5291063 297.92164256 64.03011 302.59476392 58.36572266 307.11328125 C57.17408459 308.06686972 55.98669737 309.02578065 54.80224609 309.98828125 C5.89625073 349.66650909 5.89625073 349.66650909 -15.62109375 348.453125 C-21.09138207 346.96965698 -23.97490822 344.36474093 -27.18359375 339.765625 C-28.95183975 334.5591229 -29.57983882 329.41413204 -27.359375 324.2421875 C-26.11889982 322.19951229 -24.78402704 320.33206076 -23.30859375 318.453125 C-22.54546875 317.4425 -21.78234375 316.431875 -20.99609375 315.390625 C-11.20683575 304.69073835 1.19960344 295.9991929 12.81640625 287.390625 C18.96749001 282.82799569 24.86119365 278.04695003 30.66015625 273.046875 C33.56509176 270.56120853 36.5218581 268.15781747 39.50390625 265.765625 C43.5229122 262.49799843 47.19977683 259.05834355 50.8046875 255.34375 C52.65625623 253.48834779 54.57394298 251.78026927 56.56640625 250.078125 C63.53754277 244.06569095 69.97016483 237.48229706 75.9375 230.4765625 C77.14866808 229.07926837 78.39350573 227.71070694 79.6640625 226.3671875 C90.84760594 214.47325564 107.70531048 196.06731722 108.37890625 178.890625 C107.9606699 174.69432031 106.79600531 171.09859122 104.69140625 167.453125 C104.22734375 166.63199219 103.76328125 165.81085938 103.28515625 164.96484375 C99.56900337 158.76833412 95.27509709 153.49804804 90.31640625 148.25390625 C88.31654972 146.12013076 86.38500403 143.96646197 84.47137451 141.75756836 C72.38425832 127.91846332 59.32854002 114.98943214 46.26915741 102.07797241 C43.28793573 99.13013265 40.31331365 96.17568834 37.33990479 93.2199707 C36.31132335 92.19764499 35.28273981 91.17532139 34.25415421 90.15299988 C33.74031441 89.64227621 33.22647462 89.13155254 32.69706392 88.6053524 C25.80383098 81.7547778 18.9056164 74.90931492 11.99365234 68.07763672 C7.2860806 63.42464274 2.58754713 58.76272426 -2.10096622 54.09052467 C-4.56797551 51.63283382 -7.03927392 49.17984934 -9.52188873 46.73791504 C-12.27985018 44.02505848 -15.01798708 41.29270911 -17.75488281 38.55859375 C-18.97198189 37.37081581 -18.97198189 37.37081581 -20.21366882 36.15904236 C-26.65245107 29.67353851 -30.71470797 22.99875075 -31.33203125 13.72265625 C-31.29085977 9.73588443 -31.04993781 6.08881825 -29.30859375 2.453125 C-21.39758283 -4.6026415 -9.1419195 -4.16742398 0 0 Z " fill="#FCFCFC" transform="translate(662.30859375,196.546875)"/>
<path d="M0 0 C15.4306215 12.23475978 27.9390695 29.53840274 30.90136719 49.42138672 C33.41624043 72.43194632 29.25675912 94.05135246 14.7578125 112.4765625 C0.81335529 128.34521227 -18.1088392 140.00188237 -39.56640625 141.76025391 C-62.74576343 142.72880813 -83.01187267 137.99820954 -100.8671875 122.5390625 C-101.8571875 121.8171875 -102.8471875 121.0953125 -103.8671875 120.3515625 C-117.15924986 108.96885717 -125.81949423 89.62670976 -127.8671875 72.5390625 C-128.7076757 60.27655517 -127.66833755 49.21850373 -123.8671875 37.5390625 C-123.52816406 36.49363281 -123.18914062 35.44820313 -122.83984375 34.37109375 C-115.65623976 15.01882251 -100.3826218 1.00832746 -82.3828125 -8.25390625 C-55.45827376 -20.58924357 -23.88899675 -17.54990179 0 0 Z " fill="#FDFDFD" transform="translate(477.8671875,317.4609375)"/>
<path d="M0 0 C6.96070866 6.37404301 9.98450767 13.97755795 11.3125 23.25 C11.63317371 32.65215329 9.04978841 41.26292919 3.0625 48.5625 C-3.89331142 55.93536221 -12.0051699 59.39828212 -22.04296875 60.2109375 C-31.49154037 60.35050281 -39.48493233 56.9856157 -46.5 50.75 C-47.221875 49.925 -47.94375 49.1 -48.6875 48.25 C-49.368125 47.528125 -50.04875 46.80625 -50.75 46.0625 C-56.72870375 37.38373649 -57.95224012 28.6705938 -56.6875 18.25 C-53.57080575 7.36004855 -48.32501909 0.92779138 -38.6875 -4.75 C-25.83842089 -11.61167317 -11.11638692 -8.75980811 0 0 Z " fill="#FBFBFB" transform="translate(452.6875,68.75)"/>
<path d="M0 0 C9.65966085 5.9340325 14.67688619 13.69081482 18.23828125 24.375 C19.02804618 35.34058235 17.91049408 43.87776212 10.89453125 52.52734375 C4.34752628 59.83096014 -3.66284502 64.58436096 -13.6328125 65.41015625 C-23.74450183 65.24317422 -32.61089348 61.99714561 -40.09375 55.19921875 C-47.43480048 47.17048204 -50.09938262 38.61687319 -49.69921875 27.9375 C-48.81477872 19.03066863 -45.09628161 11.70956286 -38.76171875 5.375 C-27.74351722 -3.12884386 -13.04870442 -6.31601155 0 0 Z " fill="#FCFCFC" transform="translate(787.76171875,512.625)"/>
<path d="M0 0 C8.87389547 5.57058413 14.73248843 12.338642 17.9140625 22.35546875 C19.62001991 31.40886649 18.83509017 40.65721554 14.01953125 48.56640625 C8.49494291 56.39536834 1.80721688 62.25343314 -7.69140625 64.44921875 C-16.58825345 65.3263727 -24.93318111 65.43998081 -32.69140625 60.44921875 C-33.38621094 60.02511719 -34.08101562 59.60101562 -34.796875 59.1640625 C-42.88505831 53.71629925 -47.03759861 46.39445157 -49.22265625 37.00390625 C-50.84212447 28.17780446 -48.77913013 19.43886363 -44.19140625 11.76171875 C-34.34154359 -1.92959034 -15.44876422 -7.4247855 0 0 Z " fill="#FCFCFC" transform="translate(102.69140625,513.55078125)"/>
</svg>
